<svg xmlns="http://www.w3.org/2000/svg" width="17" height="25" viewBox="0 0 17 25">
    <path fill="#EEB530" fill-rule="nonzero" d="M14.495 2.405C12.893.852 10.762 0 8.498 0h-.012c-2.18 0-4.264.817-5.853 2.3C1.03 3.795.103 5.768.007 7.894A8.064 8.064 0 0 0 1.802 13.3c.626.782 1.12 1.506 1.505 2.23l1.373 2.592v3.305c0 .876.638 1.611 1.493 1.786C6.403 24.23 7.342 25 8.462 25c1.108 0 2.035-.747 2.276-1.752.939-.105 1.686-.875 1.686-1.821V17.9l1.132-2.126a17.32 17.32 0 0 1 1.71-2.557A7.984 7.984 0 0 0 17 8.244a8.178 8.178 0 0 0-2.505-5.839zM8.943 17.468H7.8l-.048-6.247h1.228l-.036 6.247zm2.397 1.647H5.764v-.572h5.576v.572zm-5.576 1.6v-.56h5.576v.56H5.764zm2.698 3.234c-.494 0-.928-.28-1.132-.689h2.264a1.273 1.273 0 0 1-1.132.69zm2.07-1.751H6.572a.813.813 0 0 1-.723-.432h5.408a.813.813 0 0 1-.723.432zm3.855-9.622a17.833 17.833 0 0 0-1.807 2.72l-1.156 2.184h-1.397l.048-6.247h.554c.843 0 1.277-.362 1.482-.666.277-.408.313-.91.313-1.249 0-1.156-1.024-1.565-1.975-1.565-.699 0-1.446.55-1.446 1.74v.7h-1.24v-.7c0-1.202-.747-1.74-1.445-1.74-.951 0-1.975.41-1.975 1.565 0 .339.036.84.313 1.25.205.303.638.665 1.481.665h.554l.048 6.247H5.571l-1.3-2.429c-.41-.782-.94-1.564-1.614-2.405A7.026 7.026 0 0 1 1.09 7.929C1.248 4.145 4.56 1.05 8.486 1.05h.012a7.51 7.51 0 0 1 5.238 2.102c1.397 1.354 2.18 3.164 2.18 5.08a7.09 7.09 0 0 1-1.53 4.343zm-4.312-2.406v-.7c0-.012.024-.7.362-.7.89 0 .903.361.903.525 0 .315-.048.537-.133.665-.036.059-.144.199-.578.199l-.554.011zm-3.95 0c-.445 0-.542-.151-.578-.198-.084-.128-.132-.35-.132-.666 0-.151 0-.525.89-.525.338 0 .362.689.362.7v.69h-.542z"/>
</svg>
